P3
4
4
255
245
245
245
20
20
20
160
160
160
190
190
190
20
20
20
245
245
245
245
245
245
20
20
20
245
245
245
190
190
190
20
20
20
20
20
20
20
20
20
160
160
160
20
20
20
190
190
190
