P3
4
4
255
230
205
159
189
168
131
0
0
0
255
255
220
0
0
0
255
255
220
255
255
220
0
0
0
0
0
0
0
0
0
230
205
159
255
255
220
230
205
159
0
0
0
189
168
131
0
0
0
