P3
4
4
255
115
102
80
209
186
145
163
146
113
124
110
86
0
0
0
124
110
86
211
188
146
0
0
0
163
146
113
0
0
0
115
102
80
211
188
146
115
102
80
0
0
0
209
186
145
0
0
0
