P3
4
4
255
170
170
170
140
140
140
0
0
0
255
255
255
0
0
0
255
255
255
239
239
239
0
0
0
0
0
0
0
0
0
170
170
170
239
239
239
170
170
170
0
0
0
140
140
140
0
0
0
