P3
4
4
255
190
190
190
160
160
160
20
20
20
245
245
245
20
20
20
245
245
245
245
245
245
20
20
20
20
20
20
20
20
20
190
190
190
245
245
245
190
190
190
20
20
20
160
160
160
20
20
20
