P3
4
4
255
170
0
255
140
190
41
0
171
169
255
0
127
0
0
0
255
0
127
239
150
8
0
0
0
0
171
169
0
0
0
170
0
255
239
150
8
170
0
255
0
0
0
140
190
41
0
0
0
