P3
4
4
255
55
55
55
169
169
169
135
135
135
63
63
63
0
0
0
63
63
63
159
159
159
0
0
0
135
135
135
0
0
0
55
55
55
159
159
159
55
55
55
0
0
0
169
169
169
0
0
0
