P3
4
4
255
76
76
76
89
89
89
84
84
84
85
85
85
45
45
45
126
126
126
133
133
133
73
73
73
35
35
35
72
72
72
129
129
129
101
101
101
52
52
52
44
44
44
68
68
68
30
30
30
