P3
2
2
255
170
170
170
140
140
140
0
0
0
255
255
255
