P3
2
2
255
170
0
255
140
190
41
0
171
169
63
63
63
